<?xml version="1.0" encoding="utf-8"?>
<!-- Generator: Adobe Illustrator 19.0.0, SVG Export Plug-In . SVG Version: 6.00 Build 0)  -->
<svg version="1.1" id="Layer_1" xmlns="http://www.w3.org/2000/svg" xmlns:xlink="http://www.w3.org/1999/xlink" x="0px" y="0px"
	 viewBox="0 0 421.9934692 431.6253967" style="enable-background:new 0 0 421.9934692 431.6253967;" xml:space="preserve">
<style type="text/css">
	.st0{display:none;}
	.st1{display:inline;fill:#F1F2F2;}
	.st2{fill:#F1F2F2;}
	.st3{display:inline;fill:#4A494A;}
	.st4{display:inline;fill:#FFFFFF;}
	.st5{fill:#FFFFFF;}
</style>
<g id="Layer_1">
	<g id="XMLID_207_">
		<g id="XMLID_210_" class="st0">
			<path id="XMLID_214_" class="st1" d="M409.353363,266.2599487c-2.019989-0.4299927-4.3899841-1.4699707-9.019989-2.0099792
				c-10.1499939-1.1900024-20.769989-0.7900085-27.519989-9.530014
				c-7.7700195-10.0499878-23.2900085-12.2899933-37.0099182-8.6799927
				c-14.8700867,3.8999939-29.5500793,8.5399933-44.4000854,12.5200043
				c-12.1799927,3.2600098-16.6400146,1.230011-19.1599121-10.8899994
				c-5.3799744-25.8700104-10.5699768-49.3300018,3.0198975-73.6399994
				c4.5299988-8.1100006,6.5100098-17.7100067,1.4000244-26.2799988
				c-11.2200012-18.8100128-17.6200256-31.0200043-31.1400146-48.1800079
				c-27.75-35.2299957-68.8299866-68.8099976-103.9698944-96.159996
				c-7.0599976-5.4899998-13.6600952-3.3199999-14.5401001,5.0799999
				c-1.4598999,14.0500002-1.3300018,28.8899994,0.2600021,42.829998c4.4999924,39.5,18.4999924,74.25,30.1399918,111.5700073
				c1.8400116,5.8699951,2.5900116,13.019989,1.7700043,19.1699982
				c-2.8199005,21.3399963-4.1699982,31.6599884-7.4299927,49.6399994
				c-2.6699982,14.6900024-3.5599976,18.3000031-9.0400085,45.8000031
				c-4.4799957,22.4700012-4.7299957,31.5799866-24.0799942,40.8500061
				c-28.7399979,13.7799988-67.1299973,26.269989-96.7200012,38.1299744
				C15.483387,359.059967,8.483387,360.8899536,3.9033868,367.289978c-6.0699997,8.4599915-3.27,15.5799866,1.7900002,19.9399719
				c3.3499994,2.8900146,11.3199987,5.1000061,16.9399986,4.8500061c11.460001-0.5099792,22.8199978-3,34.25-4.4400024
				c22.7901001-2.8599854,45.3000031-5.7799988,68.4400024-8.1399841
				c21.8199997-2.2200012,43.9999924-3.6100159,65.9200974-4.8000183
				c10.3999023-0.5699768,20.6098938-0.2299805,30.9898987-1.2200012
				c8.0700989-1.1499939,11.9900055,3.3500061,14.0899963,10.5200195
				c3.7100067,12.6600037,7.5299988,25.2999878,11.4900055,37.8800049
				c3.3000946,10.5099792,6.1499939,12.2099915,15.0799866,6.1199951c28.75-19.5700073,55.3399963-41.730011,75.2400208-70.6799927
				c9.9499817-14.4900208,7.4599915-19.5100098-3.480011-33.210022c-3.2298889-4.0499878-6.7000122-5.9100037-2.0899963-9.9100037
				c18.2299805-15.769989,37.2200012-27.9199829,44.8800049-32.6199951
				c4.5299988-2.7799988,17.4599915-5.5299988,27.4399719-4.3299866c6.8601074,0.8200073,10.960022-0.25,12.420105-0.4100037
				c2.9099121-0.3099976,4.6900024-1.3099976,4.6900024-2.1100159
				C421.9934692,271.8899536,412.4934692,266.9299622,409.353363,266.2599487z M335.6533813,334.4299622
				c3.7799988,6.0499878,2.4899902,10.6900024,1.0599976,14.0100098
				c-3.3800049,7.8099976-18.5499878,27.0299988-28.8499146,36.769989
				c-13.5200806,12.7799988-26.6700745,24.1700134-42.7200928,34.9400024c-6.0499878,4.0599976-10.3998871,6-12.4499969-0.4400024
				c-3.6599884-11.5-7.0699921-23.9899902-10.1100006-35.6699829c-3.7198944-14.3300171,0.9101105-15.6000061,7.980011-19.9000244
				c5.6300049-3.4100037,11.3601074-6.6399841,17.019989-10.0099792
				c12.6400146-7.5299988,25.2600098-15.1100159,37.8900146-22.6600037
				c4.6199951-2.7600098,11.9299927-8.5899963,15.5599976-8.5899963S332.8533936,329.9499512,335.6533813,334.4299622z
				 M350.063385,269.2799683c-0.6799927,0.6799927-2.3500061,0.6900024-3.1300049-0.0899963
				c-0.8900146-0.8900146-0.9399109-2.3300171,0.0299988-3.3000183c0.5-0.5,2.0300903-1.1600037,3.230011,0.0400085
				C351.0233765,266.7599487,351.0233765,268.3199768,350.063385,269.2799683z M355.1233826,255.6799622
				c-19.769989-1.5-33.5299988,9.9899902-45.0699158,23.9299927c-9.7700806,11.8000183-20.6400757,13.7700195-35.0599976,9.5299988
				c-11.0699768-3.269989-28.6200867-14.6499939-36.3100891-23.1799927c-7-7.7600098-16.1600037-14.4199982-26.4900055-12.0800018
				c-14.0699921,3.1699982-25.4099884,11.5099945-30.6099854,23.6200104
				c-10.0200043,23.3200073-24.1100006,32.3099976-37.8899994,44.8299866
				c-10.9200134,9.9200134-10.5,12.0700073-12.6700134,15.6700134c-2.9499969,4.8899841-3,13.8800049,3.8800049,19.25
				c3.6199951,2.8299866,10.5800018,3.7999878,11.25,8.25c0.7599945,3.7900085-1.6499939,6.1000061-7.4799042,7.1399841
				c-11.6100922,2.0700073-13.35009,1.9900208-33.5800934,4.5400085
				c-23.7399979,2.9899902-40.0399017,4.730011-64.8199997,8.4299927
				c-13.9199982,2.3999939-17.9299984,2.1100159-21.5699978,1.4200134
				c-7.2798996-1.3699951-11.9699993-3.1900024-12.9200001-9.8300171c-1-6.9499817,5.1299996-10.7599792,14.1401005-14.9499817
				c12.1198978-5.6300049,9.9699001-3.9200134,36.6799011-14.4200134
				c26.0800018-10.2599792,54.9899979-19.7099915,74.109993-31.0799866
				c9.5800018-5.7000122,12.8300018-16.7600098,15.1501007-27.7099915c9-42.5000153,16.6099091-79.9000092,19.1300049-107.0400085
				c1.3898926-15-4.220108-26.5400085-9.9501038-44.3300018c-6.7998962-21.1600037-15.2998962-46.1500015-21.3300018-83.4200058
				c-2.75-17-2.8999939-26.3999996-2.25-39c0.5-9.75,3.7000122-9.5100002,8.7801056-5.5500002
				c12.3099976,9.5900002,35.7098999,26.8600006,50.4698944,40.0499992
				c15.0700073,13.4700012,25.9499969,24.2900009,46.0599976,47.8199997
				c16.1900024,18.9300003,23.25,31.6900024,33.1900024,49.1800079c6.25,11,3.9299927,17.3600006-0.0100098,25.0099945
				c-13.4899902,26.1799927-8.2599792,53.3099976-1.7399902,80.2400055c3.7399902,15.4299927,12.9899902,14.1900024,25.5,11
				c13.4299927-3.4200134,26.8099976-7.6500092,40-11.25c11-3,14.2399902-2.9700012,20.75-1.5
				c3.0300903,0.6899872,4.6099854,2.8699951,4.6099854,4.0699921
				C358.6333923,255.8999634,356.3933716,255.7799683,355.1233826,255.6799622z"/>
			<path id="XMLID_213_" class="st1" d="M350.063385,269.2799683c-0.6799927,0.6799927-2.3500061,0.6900024-3.1300049-0.0899963
				c-0.8900146-0.8900146-0.9399109-2.3300171,0.0299988-3.3000183c0.5-0.5,2.0300903-1.1600037,3.230011,0.0400085
				C351.0233765,266.7599487,351.0233765,268.3199768,350.063385,269.2799683z"/>
			<path id="XMLID_212_" class="st1" d="M336.7133789,348.4399719c-3.3800049,7.8099976-18.5499878,27.0299988-28.8499146,36.769989
				c-13.5200806,12.7799988-26.6700745,24.1700134-42.7200928,34.9400024c-6.0499878,4.0599976-10.3998871,6-12.4499969-0.4400024
				c-3.6599884-11.5-7.0699921-23.9899902-10.1100006-35.6699829c-3.7198944-14.3300171,0.9101105-15.6000061,7.980011-19.9000244
				c5.6300049-3.4100037,11.3601074-6.6399841,17.019989-10.0099792
				c12.6400146-7.5299988,25.2600098-15.1100159,37.8900146-22.6600037
				c4.6199951-2.7600098,11.9299927-8.5899963,15.5599976-8.5899963s11.8200073,7.0699768,14.6199951,11.5499878
				C339.4333801,340.47995,338.1433716,345.1199646,336.7133789,348.4399719z"/>
			<path id="XMLID_211_" class="st1" d="M359.0733643,254.3199615c-0.4399719,1.5800018-2.6799927,1.4600067-3.9499817,1.3600006
				c-19.769989-1.5-33.5299988,9.9899902-45.0699158,23.9299927c-9.7700806,11.8000183-20.6400757,13.7700195-35.0599976,9.5299988
				c-11.0699768-3.269989-28.6200867-14.6499939-36.3100891-23.1799927c-7-7.7600098-16.1600037-14.4199982-26.4900055-12.0800018
				c-14.0699921,3.1699982-25.4099884,11.5099945-30.6099854,23.6200104
				c-10.0200043,23.3200073-24.1100006,32.3099976-37.8899994,44.8299866
				c-10.9200134,9.9200134-10.5,12.0700073-12.6700134,15.6700134c-2.9499969,4.8899841-3,13.8800049,3.8800049,19.25
				c3.6199951,2.8299866,10.5800018,3.7999878,11.25,8.25c0.7599945,3.7900085-1.6499939,6.1000061-7.4799042,7.1399841
				c-11.6100922,2.0700073-13.35009,1.9900208-33.5800934,4.5400085
				c-23.7399979,2.9899902-40.0399017,4.730011-64.8199997,8.4299927
				c-13.9199982,2.3999939-17.9299984,2.1100159-21.5699978,1.4200134
				c-7.2798996-1.3699951-11.9699993-3.1900024-12.9200001-9.8300171c-1-6.9499817,5.1299996-10.7599792,14.1401005-14.9499817
				c12.1198978-5.6300049,9.9699001-3.9200134,36.6799011-14.4200134
				c26.0800018-10.2599792,54.9899979-19.7099915,74.109993-31.0799866
				c9.5800018-5.7000122,12.8300018-16.7600098,15.1501007-27.7099915c9-42.5000153,16.6099091-79.9000092,19.1300049-107.0400085
				c1.3898926-15-4.220108-26.5400085-9.9501038-44.3300018c-6.7998962-21.1600037-15.2998962-46.1500015-21.3300018-83.4200058
				c-2.75-17-2.8999939-26.3999996-2.25-39c0.5-9.75,3.7000122-9.5100002,8.7801056-5.5500002
				c12.3099976,9.5900002,35.7098999,26.8600006,50.4698944,40.0499992
				c15.0700073,13.4700012,25.9499969,24.2900009,46.0599976,47.8199997
				c16.1900024,18.9300003,23.25,31.6900024,33.1900024,49.1800079c6.25,11,3.9299927,17.3600006-0.0100098,25.0099945
				c-13.4899902,26.1799927-8.2599792,53.3099976-1.7399902,80.2400055c3.7399902,15.4299927,12.9899902,14.1900024,25.5,11
				c13.4299927-3.4200134,26.8099976-7.6500092,40-11.25c11-3,14.2399902-2.9700012,20.75-1.5
				C357.4934692,250.9399567,359.0733643,253.1199646,359.0733643,254.3199615z"/>
		</g>
		<path id="Wing_7_" class="st2" d="M332.307373,314.0793152c-2.1291504,1.7158813-16.325592,11.2672119-33.1286926,21.7514038
			c-17.1008911,10.6699829-36.5195007,22.6447144-52.162796,30.6760254
			c-10.8678589,5.5795898-22.3317261,6.7730103-24.5252686,7.0799561
			c8.0248413-1.1156616,11.9308472,3.3764648,14.0250244,10.5266724
			c3.710022,12.6599731,7.5300293,25.2999878,11.4900513,37.8800049
			c3.3000488,10.5099487,6.1499634,12.2099609,15.0799408,6.1199951c28.75-19.5700073,55.3400269-41.7300415,75.2399902-70.6799927
			c9.9500122-14.4900513,7.460022-19.5100098-3.4799805-33.210022
			C331.640686,320.2046814,327.8564453,318.0157776,332.307373,314.0793152z"/>
		<path id="Upper_wing_7_" class="st2" d="M379.152771,260.0610962c-3.8595581-0.8470154-11.5608521-3.2099915-23.8077087-4.4833374
			c-19.7204895-2.0504303-33.5299988,9.9899902-45.0698853,23.9299927
			c-9.7701111,11.8000183-20.6401062,13.7700195-35.0599976,9.5299988
			c-11.0700073-3.269989-28.6201019-14.6499939-36.3101044-23.1799927c-7-7.7600098-16.1600037-14.4199982-26.4900055-12.0800018
			c-14.0699921,3.1699982-25.4099884,11.5099945-30.6099854,23.6200104
			c-10.0200043,23.3199768-24.1100006,32.3099976-37.8899994,44.8299866
			c-10.9199982,9.9200134-10.5,12.0700073-12.6699982,15.6700134c-2.9500122,4.8899841-3,13.8800049,3.8799896,19.25
			c3.6199951,2.8299866,12.4251709,7.4956665,12.9251709,12.6831665c0.625,3.5625-0.3133392,7.403595-5.6973877,8.1728516
			c-1.4069061,0.2010193-15.0822983,0.9985657-35.3123016,3.5485535c-23.7399979,2.9900208-41.6313324,4.888916-66.411438,8.5889282
			c-13.9199982,2.3999939-20.9865265,2.1435547-24.6265278,1.4535522
			c-7.2798996-1.3699951-14.9039097-5.8739014-15.8539095-12.5138855c-0.9999999-6.9500122,3.0469542-14.75,12.0570536-18.9400024
			c12.1198997-5.6299744,16.282011-6.6224976,42.8599854-16.518158
			c26.2642021-9.7788391,50.6720314-18.2918396,70.124527-29.1592407
			c9.7317963-5.4367981,13.2089996-16.3939209,15.4239197-27.3656616
			c8.376236-41.4920807,15.8750763-78.2296448,18.3016968-104.6364899
			c1.3710327-14.919754-3.3848267-24.8460541-9.1674652-42.5490875
			c-6.8934937-21.1038589-16.8856506-47.8313751-22.0913773-83.9803467
			c-2.7569733-19.1446075-2.2476501-34.5083885-0.9951324-47.1403198c0.9588699-9.670372,7.960289-10.5077353,13.0998306-6.6252022
			c12.5177002,9.4561596,39.6764374,31.1611671,54.4364319,44.3511696
			c15.0699921,13.4699974,25.2814331,22.0719719,45.3914337,45.6019707
			c16.1900024,18.9300003,27.1873322,37.4915466,37.1273346,54.9815521c6.25,11,1.67276,21.0078278-2.2672424,28.6578217
			c-13.4899902,26.1800079-6.2327576,47.5088348-1.1494141,74.6755066
			c2.0793457,11.1126404,13.083313,9.3333435,19.145813,7.6666565c13.362854-3.6736298,25.7802429-7.536499,38.9702454-11.1365051
			c11-3,14.8432312-3.2385254,21.4712219-2.4569702c10.9960327,1.2966156,16.0220642,5.4416962,20.5518188,11.1269989
			C375.1687927,257.8052063,378.2024841,259.5549927,379.152771,260.0610962z"/>
		<path id="Body_7_" class="st2" d="M409.0973816,266.1393127c-2.0200195-0.4299927-4.3900146-1.4700317-9.0200195-2.0100098
			c-7.3930054-0.8667603-15.0283203-0.906311-21.2429199-4.2323608c-3.9537964-0.8997803-11.5593262-3.170105-23.4893799-4.4105225
			c-19.72052-2.050415-33.5299683,9.9900513-45.0698853,23.9300537
			c-9.7700806,11.7999878-20.6400757,13.7699585-35.0599976,9.5299683
			c-11.0700073-3.2700195-28.6201172-14.6500244-36.3101196-23.1799927c-7-7.7600098-16.1599731-14.4199829-26.4899902-12.0800171
			c-14.0700073,3.1699829-25.4099731,11.5100098-30.6099854,23.6199951
			c-10.0200195,23.3200073-24.1099854,32.3099976-37.8900146,44.8300171
			c-10.9199829,9.9199829-10.5,12.0700073-12.6699829,15.6699829c-2.9500122,4.8900146-3,13.8800049,3.8800049,19.25
			c3.6199951,2.8300171,12.4251709,7.4956665,12.9251709,12.6831665c0.5817261,3.315979-0.1957397,6.8702393-4.6472168,7.967041
			c15.8421631-1.302063,31.7801514-2.2693481,47.5844116-3.1273193c10.3999023-0.5700073,20.6099243-0.2300415,30.9899292-1.2200317
			c1.9714966-0.2809448,12.6430664-0.5819092,22.644165-5.6832275
			c30.9378662-15.7805176,84.2020264-50.5739136,87.6858521-53.5967407
			c18.2299805-15.7700195,37.2199707-27.9200439,44.8800049-32.6199951
			c4.5299683-2.7800293,17.4599609-5.5300293,27.4399414-4.3300171c6.8601074,0.8200073,10.960022-0.25,12.420105-0.4100342
			c2.9099121-0.3099976,4.6900024-1.3099976,4.6900024-2.1099854
			C421.7374573,271.7693176,412.2374573,266.8092957,409.0973816,266.1393127z M349.8074036,269.1592712
			c-0.6799927,0.6799927-2.3500366,0.6900024-3.1300049-0.0899658c-0.8900146-0.8900146-0.9399414-2.3300171,0.0299683-3.2999878
			c0.5-0.5,2.0300903-1.1600342,3.2300415,0.039978C350.7673645,266.6393127,350.7673645,268.1993103,349.8074036,269.1592712z"/>
		<path id="Eye_7_" class="st2" d="M350.4833374,269.8886719c-0.9789429,0.9789429-3.3830566,0.9933167-4.5059509-0.1295471
			c-1.28125-1.28125-1.3530579-3.3542786,0.0431824-4.7506714c0.7198181-0.7198181,2.9225464-1.6699524,4.6499023,0.0575867
			C351.8653564,266.2608948,351.8653564,268.5066528,350.4833374,269.8886719z"/>
	</g>
	<g id="XMLID_194_">
		<g id="XMLID_197_" class="st0">
			<path id="XMLID_201_" class="st3" d="M409.353363,266.2599487c-2.019989-0.4299927-4.3899841-1.4699707-9.019989-2.0099792
				c-10.1499939-1.1900024-20.769989-0.7900085-27.519989-9.530014
				c-7.7700195-10.0499878-23.2900085-12.2899933-37.0099182-8.6799927
				c-14.8700867,3.8999939-29.5500793,8.5399933-44.4000854,12.5200043
				c-12.1799927,3.2600098-16.6400146,1.230011-19.1599121-10.8899994
				c-5.3799744-25.8700104-10.5699768-49.3300018,3.0198975-73.6399994
				c4.5299988-8.1100006,6.5100098-17.7100067,1.4000244-26.2799988
				c-11.2200012-18.8100128-17.6200256-31.0200043-31.1400146-48.1800079
				c-27.75-35.2299957-68.8299866-68.8099976-103.9698944-96.159996
				c-7.0599976-5.4899998-13.6600952-3.3199999-14.5401001,5.0799999
				c-1.4598999,14.0500002-1.3300018,28.8899994,0.2600021,42.829998c4.4999924,39.5,18.4999924,74.25,30.1399918,111.5700073
				c1.8400116,5.8699951,2.5900116,13.019989,1.7700043,19.1699982
				c-2.8199005,21.3399963-4.1699982,31.6599884-7.4299927,49.6399994
				c-2.6699982,14.6900024-3.5599976,18.3000031-9.0400085,45.8000031
				c-4.4799957,22.4700012-4.7299957,31.5799866-24.0799942,40.8500061
				c-28.7399979,13.7799988-67.1299973,26.269989-96.7200012,38.1299744
				C15.483387,359.059967,8.483387,360.8899536,3.9033868,367.289978c-6.0699997,8.4599915-3.27,15.5799866,1.7900002,19.9399719
				c3.3499994,2.8900146,11.3199987,5.1000061,16.9399986,4.8500061c11.460001-0.5099792,22.8199978-3,34.25-4.4400024
				c22.7901001-2.8599854,45.3000031-5.7799988,68.4400024-8.1399841
				c21.8199997-2.2200012,43.9999924-3.6100159,65.9200974-4.8000183
				c10.3999023-0.5699768,20.6098938-0.2299805,30.9898987-1.2200012
				c8.0700989-1.1499939,11.9900055,3.3500061,14.0899963,10.5200195
				c3.7100067,12.6600037,7.5299988,25.2999878,11.4900055,37.8800049
				c3.3000946,10.5099792,6.1499939,12.2099915,15.0799866,6.1199951c28.75-19.5700073,55.3399963-41.730011,75.2400208-70.6799927
				c9.9499817-14.4900208,7.4599915-19.5100098-3.480011-33.210022c-3.2298889-4.0499878-6.7000122-5.9100037-2.0899963-9.9100037
				c18.2299805-15.769989,37.2200012-27.9199829,44.8800049-32.6199951
				c4.5299988-2.7799988,17.4599915-5.5299988,27.4399719-4.3299866c6.8601074,0.8200073,10.960022-0.25,12.420105-0.4100037
				c2.9099121-0.3099976,4.6900024-1.3099976,4.6900024-2.1100159
				C421.9934692,271.8899536,412.4934692,266.9299622,409.353363,266.2599487z M335.6533813,334.4299622
				c3.7799988,6.0499878,2.4899902,10.6900024,1.0599976,14.0100098
				c-3.3800049,7.8099976-18.5499878,27.0299988-28.8499146,36.769989
				c-13.5200806,12.7799988-26.6700745,24.1700134-42.7200928,34.9400024c-6.0499878,4.0599976-10.3998871,6-12.4499969-0.4400024
				c-3.6599884-11.5-7.0699921-23.9899902-10.1100006-35.6699829c-3.7198944-14.3300171,0.9101105-15.6000061,7.980011-19.9000244
				c5.6300049-3.4100037,11.3601074-6.6399841,17.019989-10.0099792
				c12.6400146-7.5299988,25.2600098-15.1100159,37.8900146-22.6600037
				c4.6199951-2.7600098,11.9299927-8.5899963,15.5599976-8.5899963S332.8533936,329.9499512,335.6533813,334.4299622z
				 M350.063385,269.2799683c-0.6799927,0.6799927-2.3500061,0.6900024-3.1300049-0.0899963
				c-0.8900146-0.8900146-0.9399109-2.3300171,0.0299988-3.3000183c0.5-0.5,2.0300903-1.1600037,3.230011,0.0400085
				C351.0233765,266.7599487,351.0233765,268.3199768,350.063385,269.2799683z M355.1233826,255.6799622
				c-19.769989-1.5-33.5299988,9.9899902-45.0699158,23.9299927c-9.7700806,11.8000183-20.6400757,13.7700195-35.0599976,9.5299988
				c-11.0699768-3.269989-28.6200867-14.6499939-36.3100891-23.1799927c-7-7.7600098-16.1600037-14.4199982-26.4900055-12.0800018
				c-14.0699921,3.1699982-25.4099884,11.5099945-30.6099854,23.6200104
				c-10.0200043,23.3200073-24.1100006,32.3099976-37.8899994,44.8299866
				c-10.9200134,9.9200134-10.5,12.0700073-12.6700134,15.6700134c-2.9499969,4.8899841-3,13.8800049,3.8800049,19.25
				c3.6199951,2.8299866,10.5800018,3.7999878,11.25,8.25c0.7599945,3.7900085-1.6499939,6.1000061-7.4799042,7.1399841
				c-11.6100922,2.0700073-13.35009,1.9900208-33.5800934,4.5400085
				c-23.7399979,2.9899902-40.0399017,4.730011-64.8199997,8.4299927
				c-13.9199982,2.3999939-17.9299984,2.1100159-21.5699978,1.4200134
				c-7.2798996-1.3699951-11.9699993-3.1900024-12.9200001-9.8300171c-1-6.9499817,5.1299996-10.7599792,14.1401005-14.9499817
				c12.1198978-5.6300049,9.9699001-3.9200134,36.6799011-14.4200134
				c26.0800018-10.2599792,54.9899979-19.7099915,74.109993-31.0799866
				c9.5800018-5.7000122,12.8300018-16.7600098,15.1501007-27.7099915c9-42.5000153,16.6099091-79.9000092,19.1300049-107.0400085
				c1.3898926-15-4.220108-26.5400085-9.9501038-44.3300018c-6.7998962-21.1600037-15.2998962-46.1500015-21.3300018-83.4200058
				c-2.75-17-2.8999939-26.3999996-2.25-39c0.5-9.75,3.7000122-9.5100002,8.7801056-5.5500002
				c12.3099976,9.5900002,35.7098999,26.8600006,50.4698944,40.0499992
				c15.0700073,13.4700012,25.9499969,24.2900009,46.0599976,47.8199997
				c16.1900024,18.9300003,23.25,31.6900024,33.1900024,49.1800079c6.25,11,3.9299927,17.3600006-0.0100098,25.0099945
				c-13.4899902,26.1799927-8.2599792,53.3099976-1.7399902,80.2400055c3.7399902,15.4299927,12.9899902,14.1900024,25.5,11
				c13.4299927-3.4200134,26.8099976-7.6500092,40-11.25c11-3,14.2399902-2.9700012,20.75-1.5
				c3.0300903,0.6899872,4.6099854,2.8699951,4.6099854,4.0699921
				C358.6333923,255.8999634,356.3933716,255.7799683,355.1233826,255.6799622z"/>
			<path id="XMLID_200_" class="st1" d="M350.063385,269.2799683c-0.6799927,0.6799927-2.3500061,0.6900024-3.1300049-0.0899963
				c-0.8900146-0.8900146-0.9399109-2.3300171,0.0299988-3.3000183c0.5-0.5,2.0300903-1.1600037,3.230011,0.0400085
				C351.0233765,266.7599487,351.0233765,268.3199768,350.063385,269.2799683z"/>
			<path id="XMLID_199_" class="st4" d="M336.7133789,348.4399719c-3.3800049,7.8099976-18.5499878,27.0299988-28.8499146,36.769989
				c-13.5200806,12.7799988-26.6700745,24.1700134-42.7200928,34.9400024c-6.0499878,4.0599976-10.3998871,6-12.4499969-0.4400024
				c-3.6599884-11.5-7.0699921-23.9899902-10.1100006-35.6699829c-3.7198944-14.3300171,0.9101105-15.6000061,7.980011-19.9000244
				c5.6300049-3.4100037,11.3601074-6.6399841,17.019989-10.0099792
				c12.6400146-7.5299988,25.2600098-15.1100159,37.8900146-22.6600037
				c4.6199951-2.7600098,11.9299927-8.5899963,15.5599976-8.5899963s11.8200073,7.0699768,14.6199951,11.5499878
				C339.4333801,340.47995,338.1433716,345.1199646,336.7133789,348.4399719z"/>
			<path id="XMLID_198_" class="st4" d="M359.0733643,254.3199615c-0.4399719,1.5800018-2.6799927,1.4600067-3.9499817,1.3600006
				c-19.769989-1.5-33.5299988,9.9899902-45.0699158,23.9299927c-9.7700806,11.8000183-20.6400757,13.7700195-35.0599976,9.5299988
				c-11.0699768-3.269989-28.6200867-14.6499939-36.3100891-23.1799927c-7-7.7600098-16.1600037-14.4199982-26.4900055-12.0800018
				c-14.0699921,3.1699982-25.4099884,11.5099945-30.6099854,23.6200104
				c-10.0200043,23.3200073-24.1100006,32.3099976-37.8899994,44.8299866
				c-10.9200134,9.9200134-10.5,12.0700073-12.6700134,15.6700134c-2.9499969,4.8899841-3,13.8800049,3.8800049,19.25
				c3.6199951,2.8299866,10.5800018,3.7999878,11.25,8.25c0.7599945,3.7900085-1.6499939,6.1000061-7.4799042,7.1399841
				c-11.6100922,2.0700073-13.35009,1.9900208-33.5800934,4.5400085
				c-23.7399979,2.9899902-40.0399017,4.730011-64.8199997,8.4299927
				c-13.9199982,2.3999939-17.9299984,2.1100159-21.5699978,1.4200134
				c-7.2798996-1.3699951-11.9699993-3.1900024-12.9200001-9.8300171c-1-6.9499817,5.1299996-10.7599792,14.1401005-14.9499817
				c12.1198978-5.6300049,9.9699001-3.9200134,36.6799011-14.4200134
				c26.0800018-10.2599792,54.9899979-19.7099915,74.109993-31.0799866
				c9.5800018-5.7000122,12.8300018-16.7600098,15.1501007-27.7099915c9-42.5000153,16.6099091-79.9000092,19.1300049-107.0400085
				c1.3898926-15-4.220108-26.5400085-9.9501038-44.3300018c-6.7998962-21.1600037-15.2998962-46.1500015-21.3300018-83.4200058
				c-2.75-17-2.8999939-26.3999996-2.25-39c0.5-9.75,3.7000122-9.5100002,8.7801056-5.5500002
				c12.3099976,9.5900002,35.7098999,26.8600006,50.4698944,40.0499992
				c15.0700073,13.4700012,25.9499969,24.2900009,46.0599976,47.8199997
				c16.1900024,18.9300003,23.25,31.6900024,33.1900024,49.1800079c6.25,11,3.9299927,17.3600006-0.0100098,25.0099945
				c-13.4899902,26.1799927-8.2599792,53.3099976-1.7399902,80.2400055c3.7399902,15.4299927,12.9899902,14.1900024,25.5,11
				c13.4299927-3.4200134,26.8099976-7.6500092,40-11.25c11-3,14.2399902-2.9700012,20.75-1.5
				C357.4934692,250.9399567,359.0733643,253.1199646,359.0733643,254.3199615z"/>
		</g>
		<path id="Wing_6_" class="st5" d="M332.307373,314.0793152c-2.1291504,1.7158813-16.325592,11.2672119-33.1286926,21.7514038
			c-17.1008911,10.6699829-36.5195007,22.6447144-52.162796,30.6760254
			c-10.8678589,5.5795898-22.3317261,6.7730103-24.5252686,7.0799561
			c8.0248413-1.1156616,11.9308472,3.3764648,14.0250244,10.5266724
			c3.710022,12.6599731,7.5300293,25.2999878,11.4900513,37.8800049
			c3.3000488,10.5099487,6.1499634,12.2099609,15.0799408,6.1199951c28.75-19.5700073,55.3400269-41.7300415,75.2399902-70.6799927
			c9.9500122-14.4900513,7.460022-19.5100098-3.4799805-33.210022
			C331.640686,320.2046814,327.8564453,318.0157776,332.307373,314.0793152z"/>
		<path id="Upper_wing_6_" class="st5" d="M379.152771,260.0610962c-3.8595581-0.8470154-11.5608521-3.2099915-23.8077087-4.4833374
			c-19.7204895-2.0504303-33.5299988,9.9899902-45.0698853,23.9299927
			c-9.7701111,11.8000183-20.6401062,13.7700195-35.0599976,9.5299988
			c-11.0700073-3.269989-28.6201019-14.6499939-36.3101044-23.1799927c-7-7.7600098-16.1600037-14.4199982-26.4900055-12.0800018
			c-14.0699921,3.1699982-25.4099884,11.5099945-30.6099854,23.6200104
			c-10.0200043,23.3199768-24.1100006,32.3099976-37.8899994,44.8299866
			c-10.9199982,9.9200134-10.5,12.0700073-12.6699982,15.6700134c-2.9500122,4.8899841-3,13.8800049,3.8799896,19.25
			c3.6199951,2.8299866,12.4251709,7.4956665,12.9251709,12.6831665c0.625,3.5625-0.3133392,7.403595-5.6973877,8.1728516
			c-1.4069061,0.2010193-15.0822983,0.9985657-35.3123016,3.5485535c-23.7399979,2.9900208-41.6313324,4.888916-66.411438,8.5889282
			c-13.9199982,2.3999939-20.9865265,2.1435547-24.6265278,1.4535522
			c-7.2798996-1.3699951-14.9039097-5.8739014-15.8539095-12.5138855c-0.9999999-6.9500122,3.0469542-14.75,12.0570536-18.9400024
			c12.1198997-5.6299744,16.282011-6.6224976,42.8599854-16.518158
			c26.2642021-9.7788391,50.6720314-18.2918396,70.124527-29.1592407
			c9.7317963-5.4367981,13.2089996-16.3939209,15.4239197-27.3656616
			c8.376236-41.4920807,15.8750763-78.2296448,18.3016968-104.6364899
			c1.3710327-14.919754-3.3848267-24.8460541-9.1674652-42.5490875
			c-6.8934937-21.1038589-16.8856506-47.8313751-22.0913773-83.9803467
			c-2.7569733-19.1446075-2.2476501-34.5083885-0.9951324-47.1403198c0.9588699-9.670372,7.960289-10.5077353,13.0998306-6.6252022
			c12.5177002,9.4561596,39.6764374,31.1611671,54.4364319,44.3511696
			c15.0699921,13.4699974,25.2814331,22.0719719,45.3914337,45.6019707
			c16.1900024,18.9300003,27.1873322,37.4915466,37.1273346,54.9815521c6.25,11,1.67276,21.0078278-2.2672424,28.6578217
			c-13.4899902,26.1800079-6.2327576,47.5088348-1.1494141,74.6755066
			c2.0793457,11.1126404,13.083313,9.3333435,19.145813,7.6666565c13.362854-3.6736298,25.7802429-7.536499,38.9702454-11.1365051
			c11-3,14.8432312-3.2385254,21.4712219-2.4569702c10.9960327,1.2966156,16.0220642,5.4416962,20.5518188,11.1269989
			C375.1687927,257.8052063,378.2024841,259.5549927,379.152771,260.0610962z"/>
		<path id="Body_6_" d="M409.0973816,266.1393127c-2.0200195-0.4299927-4.3900146-1.4700317-9.0200195-2.0100098
			c-7.3930054-0.8667603-15.0283203-0.906311-21.2429199-4.2323608c-3.9537964-0.8997803-11.5593262-3.170105-23.4893799-4.4105225
			c-19.72052-2.050415-33.5299683,9.9900513-45.0698853,23.9300537
			c-9.7700806,11.7999878-20.6400757,13.7699585-35.0599976,9.5299683
			c-11.0700073-3.2700195-28.6201172-14.6500244-36.3101196-23.1799927c-7-7.7600098-16.1599731-14.4199829-26.4899902-12.0800171
			c-14.0700073,3.1699829-25.4099731,11.5100098-30.6099854,23.6199951
			c-10.0200195,23.3200073-24.1099854,32.3099976-37.8900146,44.8300171
			c-10.9199829,9.9199829-10.5,12.0700073-12.6699829,15.6699829c-2.9500122,4.8900146-3,13.8800049,3.8800049,19.25
			c3.6199951,2.8300171,12.4251709,7.4956665,12.9251709,12.6831665c0.5817261,3.315979-0.1957397,6.8702393-4.6472168,7.967041
			c15.8421631-1.302063,31.7801514-2.2693481,47.5844116-3.1273193c10.3999023-0.5700073,20.6099243-0.2300415,30.9899292-1.2200317
			c1.9714966-0.2809448,12.6430664-0.5819092,22.644165-5.6832275
			c30.9378662-15.7805176,84.2020264-50.5739136,87.6858521-53.5967407
			c18.2299805-15.7700195,37.2199707-27.9200439,44.8800049-32.6199951
			c4.5299683-2.7800293,17.4599609-5.5300293,27.4399414-4.3300171c6.8601074,0.8200073,10.960022-0.25,12.420105-0.4100342
			c2.9099121-0.3099976,4.6900024-1.3099976,4.6900024-2.1099854
			C421.7374573,271.7693176,412.2374573,266.8092957,409.0973816,266.1393127z M349.8074036,269.1592712
			c-0.6799927,0.6799927-2.3500366,0.6900024-3.1300049-0.0899658c-0.8900146-0.8900146-0.9399414-2.3300171,0.0299683-3.2999878
			c0.5-0.5,2.0300903-1.1600342,3.2300415,0.039978C350.7673645,266.6393127,350.7673645,268.1993103,349.8074036,269.1592712z"/>
		<path id="Eye_6_" class="st2" d="M350.4833374,269.8886719c-0.9789429,0.9789429-3.3830566,0.9933167-4.5059509-0.1295471
			c-1.28125-1.28125-1.3530579-3.3542786,0.0431824-4.7506714c0.7198181-0.7198181,2.9225464-1.6699524,4.6499023,0.0575867
			C351.8653564,266.2608948,351.8653564,268.5066528,350.4833374,269.8886719z"/>
	</g>
</g>
</svg>
