<?xml version="1.0" encoding="utf-8"?>
<!-- Generator: Adobe Illustrator 19.0.0, SVG Export Plug-In . SVG Version: 6.00 Build 0)  -->
<svg version="1.1" id="Layer_1" xmlns="http://www.w3.org/2000/svg" xmlns:xlink="http://www.w3.org/1999/xlink" x="0px" y="0px"
	 viewBox="0 0 317 388" style="enable-background:new 0 0 317 388;" xml:space="preserve">
<style type="text/css">
	.st0{fill:#FFFFFF;}
	.st1{fill:#F2F2F2;}
	.st2{fill:#231F20;}
</style>
<g id="XMLID_7_">
	<path id="XMLID_32_" class="st0" d="M26.2,320l6.9-16.4h1.5l-8.9,20.9h-0.9l-8.9-20.9h1.6l7.8,18.5C25.5,321.8,25.7,321.1,26.2,320
		z"/>
	<path id="XMLID_34_" class="st0" d="M38.9,324.4v-20.8h1.5v20.8H38.9z"/>
	<path id="XMLID_36_" class="st0" d="M64.2,323.4c-1.6,0.9-3.8,1.3-6.7,1.3c-2.8,0-5.4-1-7.5-3.1c-2.2-2-3.2-4.6-3.2-7.6
		s0.9-5.6,2.8-7.6c1.9-2,4.3-3.1,7.3-3.1c2.4,0,4.8,0.4,7.1,1.1l-0.4,1.2c-2.2-0.7-4.5-1-6.9-1c-2.4,0-4.4,0.9-6,2.7
		c-1.6,1.8-2.4,4-2.4,6.6c0,2.6,0.9,4.8,2.8,6.7c1.9,1.8,4,2.8,6.5,2.8c2.5,0,4.5-0.3,6.1-1L64.2,323.4z"/>
	<path id="XMLID_38_" class="st0" d="M73.1,304.9h-7v-1.3h15.5v1.3h-7v19.5h-1.4V304.9z"/>
	<path id="XMLID_40_" class="st0" d="M94.5,324.7c-3,0-5.5-1-7.5-3.1c-2-2.1-3-4.6-3-7.6s1-5.5,3-7.6c2-2.1,4.5-3.1,7.5-3.1
		c3,0,5.5,1,7.5,3.1c2,2.1,3,4.6,3,7.6s-1,5.5-3,7.6C99.9,323.7,97.4,324.7,94.5,324.7z M94.5,304.6c-2.6,0-4.7,0.9-6.4,2.7
		c-1.7,1.8-2.5,4-2.5,6.7s0.8,4.9,2.5,6.7c1.7,1.8,3.8,2.7,6.4,2.7c2.6,0,4.7-0.9,6.4-2.7c1.7-1.8,2.5-4,2.5-6.7s-0.8-4.9-2.5-6.7
		C99.2,305.5,97,304.6,94.5,304.6z"/>
	<path id="XMLID_43_" class="st0" d="M111.3,324.4v-20.7c1.8-0.1,3.4-0.2,4.7-0.2c2,0,3.6,0.5,4.9,1.5c1.3,1,1.9,2.5,1.9,4.3
		c0,1.3-0.4,2.4-1.1,3.5c-0.7,1.1-1.5,1.9-2.5,2.6c2.5,3.4,4.1,5.4,4.7,6c1.2,1.3,2.5,2,4,2.1l0,1c-1.2,0-2.2-0.2-2.9-0.5
		c-0.7-0.3-1.5-0.9-2.2-1.7c-0.7-0.8-2.4-2.9-4.8-6.4c-1.7,0-3.4-0.1-5.1-0.2v8.5H111.3z M117.1,314.8c0.8,0,1.7-0.6,2.7-1.7
		c1-1.1,1.4-2.4,1.4-3.9c0-1.5-0.5-2.6-1.5-3.4c-1-0.8-2.3-1.2-3.9-1.2c-0.9,0-1.9,0-3,0.1v9.8C114.3,314.8,115.8,314.8,117.1,314.8
		z"/>
	<path id="XMLID_46_" class="st0" d="M130.8,324.4v-20.8h1.5v20.8H130.8z"/>
	<path id="XMLID_48_" class="st0" d="M141,317.2l-3,7.2h-1.5l8.7-20.9h0.9l8.8,20.9h-1.6l-3-7.2H141z M145.5,305.8
		c-0.3,1-0.6,1.8-0.9,2.4l-3.2,7.7h8.2l-3.2-7.6C146,307.1,145.7,306.3,145.5,305.8z"/>
	<path id="XMLID_51_" class="st0" d="M159,324.4v-20.9h0.7l13.6,15.7c0.5,0.6,0.9,1.1,1.4,1.6s0.6,0.8,0.7,0.8c0-0.5-0.1-1.5-0.1-3
		v-15h1.5v20.9h-0.7l-13.9-15.9l-1.8-2.1c0,0.4,0.1,1.4,0.1,3v14.9H159z"/>
	<path id="XMLID_53_" class="st0" d="M201.3,319.3l6-15.3h0.9l5.2,15.4l0.8,2.6c0.1-0.4,0.3-1.3,0.8-2.6l5.3-15.8h1.5l-7.2,20.9
		h-0.9c-3.6-10.2-5.4-15.5-5.5-15.9c-0.2-0.6-0.4-1.1-0.6-1.7c-0.1,0.4-0.4,1.1-0.9,2.3l-6,15.4h-0.9l-7.3-20.9h1.6l5.3,15.6
		c0.3,0.9,0.6,1.8,0.8,2.8C200.4,321.6,200.7,320.7,201.3,319.3z"/>
	<path id="XMLID_55_" class="st0" d="M225.8,317.2l-3,7.2h-1.5l8.7-20.9h0.9l8.8,20.9H238l-3-7.2H225.8z M230.4,305.8
		c-0.3,1-0.6,1.8-0.9,2.4l-3.2,7.7h8.2l-3.2-7.6C230.8,307.1,230.5,306.3,230.4,305.8z"/>
	<path id="XMLID_58_" class="st0" d="M249.9,303.4c3.2,0,5.9,1,8,3c2.1,2,3.2,4.7,3.2,8c0,3.4-1,5.9-3,7.6c-2,1.7-4.5,2.6-7.6,2.6
		c-2.2,0-4.4-0.1-6.7-0.3v-20.7C245.6,303.5,247.6,303.4,249.9,303.4z M250.5,323.3c2.7,0,4.9-0.7,6.6-2.2s2.5-3.7,2.5-6.7
		c0-3-0.9-5.3-2.8-7.1c-1.9-1.7-4.2-2.6-6.9-2.6c-1.9,0-3.4,0-4.5,0.1v18.2C246.7,323.2,248.4,323.3,250.5,323.3z"/>
	<path id="XMLID_61_" class="st0" d="M267.5,324.4v-20.8h9.7v1.3H269v7.6h7.4v1.2H269v9.3h8.5v1.3H267.5z"/>
	<path id="XMLID_63_" class="st0" d="M283.4,324.4v-20.7c1.8-0.1,3.4-0.2,4.7-0.2c2,0,3.6,0.5,4.9,1.5c1.3,1,1.9,2.5,1.9,4.3
		c0,1.3-0.4,2.4-1.1,3.5c-0.7,1.1-1.5,1.9-2.5,2.6c2.5,3.4,4.1,5.4,4.7,6c1.2,1.3,2.5,2,4,2.1l0,1c-1.2,0-2.2-0.2-2.9-0.5
		c-0.7-0.3-1.5-0.9-2.2-1.7c-0.7-0.8-2.4-2.9-4.8-6.4c-1.7,0-3.4-0.1-5.1-0.2v8.5H283.4z M289.2,314.8c0.8,0,1.7-0.6,2.7-1.7
		c1-1.1,1.4-2.4,1.4-3.9c0-1.5-0.5-2.6-1.5-3.4c-1-0.8-2.3-1.2-3.9-1.2c-0.9,0-1.9,0-3,0.1v9.8C286.4,314.8,287.9,314.8,289.2,314.8
		z"/>
	<path id="XMLID_66_" class="st0" d="M56,342.9c-1.2,0-2.1,0.3-2.8,0.8s-1.1,1.3-1.1,2.3c0,1.2,0.5,2.2,1.4,3.1
		c0.7,0.7,1.6,1.4,2.6,2.1c1.1,0.7,1.8,1.3,2.2,1.6c0.4,0.3,0.9,0.8,1.5,1.3c1,1,1.6,2.3,1.6,3.6c0,1.8-0.6,3.1-1.8,4
		c-1.2,0.9-2.8,1.4-5,1.4c-2.1,0-3.9-0.6-5.3-1.7l0.8-1.1c1.5,1,3,1.5,4.6,1.5c1.6,0,2.9-0.3,3.8-1c0.9-0.7,1.4-1.6,1.4-2.9
		c0-1.1-0.5-2-1.4-2.9c-0.6-0.6-1.5-1.3-2.6-2.1c-1.1-0.7-1.8-1.3-2.3-1.6c-0.4-0.3-0.9-0.8-1.5-1.3c-1.1-1.1-1.6-2.3-1.6-3.8
		c0-1.4,0.5-2.5,1.5-3.4s2.4-1.2,4.2-1.2s3.4,0.4,4.8,1.1l-0.5,1.2C59.3,343.2,57.7,342.9,56,342.9z"/>
	<path id="XMLID_68_" class="st0" d="M71.1,343.3h-7V342h15.5v1.3h-7v19.5h-1.4V343.3z"/>
	<path id="XMLID_70_" class="st0" d="M98.7,360.6c-1.4,1.6-3.6,2.5-6.4,2.5s-5-0.8-6.4-2.5c-1.4-1.6-2.1-3.9-2.1-6.8V342h1.5v11.8
		c0,5.3,2.4,8,7.1,8s7.1-2.7,7.1-8V342h1.5v11.8C100.8,356.7,100.1,359,98.7,360.6z"/>
	<path id="XMLID_72_" class="st0" d="M114.3,341.8c3.2,0,5.9,1,8,3c2.1,2,3.2,4.7,3.2,8c0,3.4-1,5.9-3,7.6c-2,1.7-4.5,2.6-7.6,2.6
		c-2.2,0-4.4-0.1-6.7-0.3V342C110,341.9,112,341.8,114.3,341.8z M114.9,361.7c2.7,0,4.9-0.7,6.6-2.2s2.5-3.7,2.5-6.7
		c0-3-0.9-5.3-2.8-7.1c-1.9-1.7-4.2-2.6-6.9-2.6c-1.9,0-3.4,0-4.5,0.1v18.2C111.1,361.6,112.8,361.7,114.9,361.7z"/>
	<path id="XMLID_75_" class="st0" d="M137.2,362.8h-1.4v-7.4l-7.8-13.3h1.8l6,10.3c0.5,0.9,0.7,1.4,0.8,1.5c0.1-0.3,0.4-0.8,0.8-1.5
		l6-10.3h1.7l-7.8,13.4V362.8z"/>
	<path id="XMLID_77_" class="st0" d="M169.5,343c-2.4,0-4.4,0.9-6,2.7c-1.6,1.8-2.4,4-2.4,6.6s0.9,4.8,2.7,6.7s4,2.7,6.4,2.7
		s4.4-0.3,5.7-0.9v-8.5h1.5v9.2c-1.7,1-4,1.5-7.1,1.5c-3.1,0-5.6-1-7.7-3.1c-2.1-2.1-3.1-4.6-3.1-7.6s0.9-5.6,2.8-7.6
		c1.9-2,4.3-3.1,7.3-3.1c2.4,0,4.8,0.4,7.1,1.1l-0.4,1.2C174.1,343.3,171.9,343,169.5,343z"/>
	<path id="XMLID_79_" class="st0" d="M184.4,362.8v-20.7c1.8-0.1,3.4-0.2,4.7-0.2c2,0,3.6,0.5,4.9,1.5c1.3,1,1.9,2.5,1.9,4.3
		c0,1.3-0.4,2.4-1.1,3.5s-1.5,1.9-2.5,2.6c2.5,3.4,4.1,5.4,4.7,6c1.2,1.3,2.5,2,4,2.1l0,1c-1.2,0-2.2-0.2-2.9-0.5
		c-0.7-0.3-1.5-0.9-2.2-1.7c-0.7-0.8-2.4-2.9-4.8-6.4c-1.7,0-3.4-0.1-5.1-0.2v8.5H184.4z M190.2,353.2c0.8,0,1.7-0.6,2.7-1.7
		c1-1.1,1.4-2.4,1.4-3.9c0-1.5-0.5-2.6-1.5-3.4c-1-0.8-2.3-1.2-3.9-1.2c-0.9,0-1.9,0-3,0.1v9.8C187.4,353.2,188.9,353.2,190.2,353.2
		z"/>
	<path id="XMLID_82_" class="st0" d="M212.3,363.1c-3,0-5.5-1-7.5-3.1c-2-2.1-3-4.6-3-7.6s1-5.5,3-7.6c2-2.1,4.5-3.1,7.5-3.1
		s5.5,1,7.5,3.1c2,2.1,3,4.6,3,7.6s-1,5.5-3,7.6C217.8,362.1,215.3,363.1,212.3,363.1z M212.3,343c-2.6,0-4.7,0.9-6.4,2.7
		s-2.5,4-2.5,6.7s0.8,4.9,2.5,6.7s3.8,2.7,6.4,2.7c2.6,0,4.7-0.9,6.4-2.7c1.7-1.8,2.5-4,2.5-6.7s-0.8-4.9-2.5-6.7
		C217,343.9,214.9,343,212.3,343z"/>
	<path id="XMLID_85_" class="st0" d="M243.9,360.6c-1.4,1.6-3.6,2.5-6.4,2.5s-5-0.8-6.4-2.5s-2.1-3.9-2.1-6.8V342h1.5v11.8
		c0,5.3,2.4,8,7.1,8s7.1-2.7,7.1-8V342h1.5v11.8C246.1,356.7,245.4,359,243.9,360.6z"/>
	<path id="XMLID_87_" class="st0" d="M253.5,362.8v-20.6c1.6-0.2,3.3-0.3,5.1-0.3c1.8,0,3.3,0.5,4.5,1.4s1.9,2.4,1.9,4.3
		s-0.8,3.5-2.5,4.7c-1.7,1.2-3.7,1.8-6,1.8c-0.1,0-0.2,0-0.4,0v-1c0.1,0,0.2,0,0.2,0c1.9,0,3.6-0.5,5-1.5c1.4-1,2.1-2.3,2.1-3.9
		s-0.5-2.8-1.5-3.5c-1-0.7-2.3-1.1-3.9-1.1c-0.9,0-1.9,0-3,0.1v19.5H253.5z"/>
</g>
<g id="XMLID_2_">
	<path id="Wing" class="st0" d="M231.2,207.3c-1.3,1-9.9,6.7-20,12.9c-10.3,6.3-22.1,13.4-31.6,18.1c-6.6,3.3-13.5,4-14.8,4.2
		c4.9-0.7,7.2,2,8.5,6.2c2.2,7.5,4.6,15,7,22.4c2,6.2,3.7,7.2,9.1,3.6c17.4-11.6,33.5-24.7,45.5-41.8c6-8.6,4.5-11.5-2.1-19.6
		C230.8,211,228.5,209.7,231.2,207.3z"/>
	<path id="Upper_wing" class="st0" d="M259.6,175.4c-2.3-0.5-7-1.9-14.4-2.6c-11.9-1.2-20.3,5.9-27.3,14.1c-5.9,7-12.5,8.1-21.2,5.6
		c-6.7-1.9-17.3-8.7-22-13.7c-4.2-4.6-9.8-8.5-16-7.1c-8.5,1.9-15.4,6.8-18.5,14c-6.1,13.8-14.6,19.1-22.9,26.5
		c-6.6,5.9-6.4,7.1-7.7,9.3c-1.8,2.9-1.8,8.2,2.3,11.4c2.2,1.7,7.5,4.4,7.8,7.5c0.4,2.1-0.2,4.4-3.4,4.8c-0.9,0.1-9.1,0.6-21.4,2.1
		c-14.4,1.8-25.2,2.9-40.2,5.1c-8.4,1.4-12.7,1.3-14.9,0.9c-4.4-0.8-9-3.5-9.6-7.4c-0.6-4.1,1.8-8.7,7.3-11.2
		c7.3-3.3,9.8-3.9,25.9-9.8c15.9-5.8,30.7-10.8,42.4-17.2c5.9-3.2,8-9.7,9.3-16.2c5.1-24.5,9.6-46.2,11.1-61.8
		c0.8-8.8-2-14.7-5.5-25.1c-4.2-12.5-10.2-28.3-13.4-49.6c-1.7-11.3-1.4-20.4-0.6-27.9c0.6-5.7,4.8-6.2,7.9-3.9
		c7.6,5.6,24,18.4,32.9,26.2c9.1,8,15.3,13,27.5,27c9.8,11.2,16.4,22.2,22.5,32.5c3.8,6.5,1,12.4-1.4,16.9
		c-8.2,15.5-3.8,28.1-0.7,44.1c1.3,6.6,7.9,5.5,11.6,4.5c8.1-2.2,15.6-4.5,23.6-6.6c6.7-1.8,9-1.9,13-1.5c6.7,0.8,9.7,3.2,12.4,6.6
		C257.2,174.1,259,175.1,259.6,175.4z"/>
	<path id="Eye" class="st1" d="M241.9,180.9c-0.4,0.4-1.4,0.4-1.9-0.1c-0.5-0.5-0.6-1.4,0-2c0.3-0.3,1.2-0.7,2,0
		C242.5,179.4,242.5,180.3,241.9,180.9z"/>
	<path id="Body" class="st2" d="M277.7,179c-1.2-0.3-2.7-0.9-5.5-1.2c-4.5-0.5-9.1-0.5-12.9-2.5c-2.4-0.5-7-1.9-14.2-2.6
		c-11.9-1.2-20.3,5.9-27.3,14.1c-5.9,7-12.5,8.1-21.2,5.6c-6.7-1.9-17.3-8.7-22-13.7c-4.2-4.6-9.8-8.5-16-7.1
		c-8.5,1.9-15.4,6.8-18.5,14c-6.1,13.8-14.6,19.1-22.9,26.5c-6.6,5.9-6.4,7.1-7.7,9.3c-1.8,2.9-1.8,8.2,2.3,11.4
		c2.2,1.7,7.5,4.4,7.8,7.5c0.4,2-0.1,4.1-2.8,4.7c9.6-0.8,19.2-1.3,28.8-1.8c6.3-0.3,12.5-0.1,18.7-0.7c1.2-0.2,7.6-0.3,13.7-3.4
		c18.7-9.3,50.9-29.9,53-31.7c11-9.3,22.5-16.5,27.1-19.3c2.7-1.6,10.6-3.3,16.6-2.6c4.1,0.5,6.6-0.1,7.5-0.2
		c1.8-0.2,2.8-0.8,2.8-1.2C285.3,182.3,279.6,179.4,277.7,179z M241.8,180.8c-0.4,0.4-1.4,0.4-1.9-0.1c-0.5-0.5-0.6-1.4,0-2
		c0.3-0.3,1.2-0.7,2,0C242.4,179.3,242.4,180.2,241.8,180.8z"/>
</g>
<g id="XMLID_31_">
</g>
<g id="XMLID_89_">
</g>
<g id="XMLID_90_">
</g>
<g id="XMLID_91_">
</g>
<g id="XMLID_92_">
</g>
<g id="XMLID_93_">
</g>
</svg>
